# xmcd
#
# Track frame offsets:
#	183
#	17385
#	27733
#	41355
#	55613
#	68508
#	85868
#	101820
#	113290
#	128053
#	139385
#	154035
#	168045
#	184145
#	196540
#	209045
#	221295
#	234615
#
# Disc length: 3298 seconds
#
# Revision: 0
# Processed by: cddbd v1.5.1PL0 Copyright (c) Steve Scherf et al.
# Submitted via: dBpowerAMP V4.0
#
DISCID=e60ce012
DTITLE=The Golden Gate Quartet - Best Of
DYEAR=1900
DGENRE=Soul
TTITLE0=Remember
TTITLE1=Blue Suede Shoes
TTITLE2=The Great Pretender
TTITLE3=Don't Let Go
TTITLE4=I'm Troubled
TTITLE5=Midnight Train
TTITLE6=Only You
TTITLE7=Shadrack
TTITLE8=Lord In My Heart
TTITLE9=Joshua Fit The Battle  Of Jericho
TTITLE10=Nobody Knows The Trouble I've Seen
TTITLE11=Frankie And Johnny
TTITLE12=La Novia
TTITLE13=Amen
TTITLE14=Glory, Glory Hallelujah
TTITLE15=On The Sunny Side Of The Street
TTITLE16=Saint Louis Blues
TTITLE17=When The Saints...
EXTD=
EXTT0=
EXTT1=
EXTT2=
EXTT3=
EXTT4=
EXTT5=
EXTT6=
EXTT7=
EXTT8=
EXTT9=
EXTT10=
EXTT11=
EXTT12=
EXTT13=
EXTT14=
EXTT15=
EXTT16=
EXTT17=
PLAYORDER=
